<svg xmlns="http://www.w3.org/2000/svg" fill="none" viewBox="0 0 62 62"><g clip-path="url(#huly-icon_svg__a)"><rect width="62" height="62" fill="#090A0C" rx="15" style="fill:#090a0c;fill:color(display-p3 .0353 .0392 .0471);fill-opacity:1"/><rect width="60.5" height="60.5" x=".75" y=".75" stroke="#91AAFF" stroke-opacity=".17" stroke-width="1.5" rx="14.25" style="stroke:#91aaff;stroke:color(display-p3 .5703 .6649 1);stroke-opacity:.17"/><mask id="huly-icon_svg__b" width="61" height="59" x="0" y="0" maskUnits="userSpaceOnUse" style="mask-type:alpha"><path fill="#D9D9D9" fill-rule="evenodd" d="M60.34 15.998c0 6.533-4.036 12.123-9.75 14.413a15.5 15.5 0 0 1 5.9 12.18c0 8.573-6.95 15.522-15.521 15.522-8.573 0-15.522-6.95-15.522-15.521 0-6.533 4.036-12.123 9.75-14.413a15.57 15.57 0 0 1-4.687-6.154c-2.224 5.848-7.883 10.004-14.512 10.004C7.426 32.03.477 25.08.477 16.508S7.426.986 15.997.986c6.436 0 11.956 3.916 14.309 9.495C32.53 4.633 38.189.477 44.818.477c8.573 0 15.522 6.949 15.522 15.52Z" clip-rule="evenodd" style="fill:#d9d9d9;fill:color(display-p3 .851 .851 .851);fill-opacity:1"/></mask><g mask="url(#huly-icon_svg__b)"><g filter="url(#huly-icon_svg__c)"><path fill="#000" d="M46.428 36.828a2.4 2.4 0 0 1 2.4 2.4v7.2a2.4 2.4 0 0 1-2.4 2.4h-7.2a2.4 2.4 0 0 1-2.4-2.4v-7.2a2.4 2.4 0 0 1 2.4-2.4zm-24-24a2.4 2.4 0 0 1 2.4 2.4v7.2a2.4 2.4 0 0 1-2.4 2.4h-7.2a2.4 2.4 0 0 1-2.4-2.4v-7.2a2.4 2.4 0 0 1 2.4-2.4zm25.697 12.703a2.4 2.4 0 0 0 .703-1.697v-8.606a2.4 2.4 0 0 0-2.4-2.4h-7.2a2.4 2.4 0 0 0-2.4 2.4v7.2a2.4 2.4 0 0 1-2.4 2.4h-8.606a2.4 2.4 0 0 0-1.697.703L13.531 36.125a2.4 2.4 0 0 0-.703 1.697v8.606a2.4 2.4 0 0 0 2.4 2.4h7.2a2.4 2.4 0 0 0 2.4-2.4v-7.2a2.4 2.4 0 0 1 2.4-2.4h8.606a2.4 2.4 0 0 0 1.697-.703z" style="fill:#000;fill-opacity:1"/></g><g filter="url(#huly-icon_svg__d)"><path fill="#000" d="M46.428 36.828a2.4 2.4 0 0 1 2.4 2.4v7.2a2.4 2.4 0 0 1-2.4 2.4h-7.2a2.4 2.4 0 0 1-2.4-2.4v-7.2a2.4 2.4 0 0 1 2.4-2.4zm-24-24a2.4 2.4 0 0 1 2.4 2.4v7.2a2.4 2.4 0 0 1-2.4 2.4h-7.2a2.4 2.4 0 0 1-2.4-2.4v-7.2a2.4 2.4 0 0 1 2.4-2.4zm25.697 12.703a2.4 2.4 0 0 0 .703-1.697v-8.606a2.4 2.4 0 0 0-2.4-2.4h-7.2a2.4 2.4 0 0 0-2.4 2.4v7.2a2.4 2.4 0 0 1-2.4 2.4h-8.606a2.4 2.4 0 0 0-1.697.703L13.531 36.125a2.4 2.4 0 0 0-.703 1.697v8.606a2.4 2.4 0 0 0 2.4 2.4h7.2a2.4 2.4 0 0 0 2.4-2.4v-7.2a2.4 2.4 0 0 1 2.4-2.4h8.606a2.4 2.4 0 0 0 1.697-.703z" style="fill:#000;fill-opacity:1"/></g></g><path fill="#D5D5D5" d="M46.305 36.828a2.4 2.4 0 0 1 2.4 2.4v7.2a2.4 2.4 0 0 1-2.4 2.4h-7.2a2.4 2.4 0 0 1-2.4-2.4v-7.2a2.4 2.4 0 0 1 2.4-2.4zm-24-24a2.4 2.4 0 0 1 2.4 2.4v7.2a2.4 2.4 0 0 1-2.4 2.4h-7.2a2.4 2.4 0 0 1-2.4-2.4v-7.2a2.4 2.4 0 0 1 2.4-2.4zm25.697 12.703a2.4 2.4 0 0 0 .703-1.697v-8.606a2.4 2.4 0 0 0-2.4-2.4h-7.2a2.4 2.4 0 0 0-2.4 2.4v7.2a2.4 2.4 0 0 1-2.4 2.4H25.7a2.4 2.4 0 0 0-1.697.703L13.408 36.125a2.4 2.4 0 0 0-.703 1.697v8.606a2.4 2.4 0 0 0 2.4 2.4h7.2a2.4 2.4 0 0 0 2.4-2.4v-7.2a2.4 2.4 0 0 1 2.4-2.4h8.606a2.4 2.4 0 0 0 1.697-.703z" style="fill:#d5d5d5;fill:color(display-p3 .8353 .8353 .8353);fill-opacity:1"/><g filter="url(#huly-icon_svg__e)"><path fill="#D5D5D5" fill-opacity=".01" d="M46.305 36.828a2.4 2.4 0 0 1 2.4 2.4v7.2a2.4 2.4 0 0 1-2.4 2.4h-7.2a2.4 2.4 0 0 1-2.4-2.4v-7.2a2.4 2.4 0 0 1 2.4-2.4zm-24-24a2.4 2.4 0 0 1 2.4 2.4v7.2a2.4 2.4 0 0 1-2.4 2.4h-7.2a2.4 2.4 0 0 1-2.4-2.4v-7.2a2.4 2.4 0 0 1 2.4-2.4zm25.697 12.703a2.4 2.4 0 0 0 .703-1.697v-8.606a2.4 2.4 0 0 0-2.4-2.4h-7.2a2.4 2.4 0 0 0-2.4 2.4v7.2a2.4 2.4 0 0 1-2.4 2.4H25.7a2.4 2.4 0 0 0-1.697.703L13.408 36.125a2.4 2.4 0 0 0-.703 1.697v8.606a2.4 2.4 0 0 0 2.4 2.4h7.2a2.4 2.4 0 0 0 2.4-2.4v-7.2a2.4 2.4 0 0 1 2.4-2.4h8.606a2.4 2.4 0 0 0 1.697-.703z" style="fill:#d5d5d5;fill:color(display-p3 .8353 .8353 .8353);fill-opacity:.01"/></g><path stroke="#fff" stroke-width=".342" d="M46.428 37a2.23 2.23 0 0 1 2.23 2.228v7.2a2.23 2.23 0 0 1-2.23 2.23h-7.2A2.23 2.23 0 0 1 37 46.427v-7.2a2.23 2.23 0 0 1 2.23-2.229h7.2Zm-24-24a2.23 2.23 0 0 1 2.23 2.228v7.2a2.23 2.23 0 0 1-2.23 2.23h-7.2A2.23 2.23 0 0 1 13 22.427v-7.2a2.23 2.23 0 0 1 2.23-2.229h7.2Zm26.23 10.834a2.23 2.23 0 0 1-.654 1.576L37.41 36.004a2.23 2.23 0 0 1-1.576.653h-8.606a2.57 2.57 0 0 0-2.57 2.571v7.2a2.23 2.23 0 0 1-2.23 2.23h-7.2A2.23 2.23 0 0 1 13 46.427v-8.606c0-.59.235-1.158.653-1.576l10.594-10.594a2.23 2.23 0 0 1 1.576-.653h8.606A2.57 2.57 0 0 0 37 22.43v-7.2A2.23 2.23 0 0 1 39.23 13h7.2a2.23 2.23 0 0 1 2.228 2.23v8.605Z" opacity=".8" style="stroke:#fff;stroke-opacity:1"/><mask id="huly-icon_svg__f" width="37" height="37" x="12" y="12" maskUnits="userSpaceOnUse" style="mask-type:alpha"><path fill="#D9D9D9" d="M46.428 36.828a2.4 2.4 0 0 1 2.4 2.4v7.2a2.4 2.4 0 0 1-2.4 2.4h-7.2a2.4 2.4 0 0 1-2.4-2.4v-7.2a2.4 2.4 0 0 1 2.4-2.4zm-24-24a2.4 2.4 0 0 1 2.4 2.4v7.2a2.4 2.4 0 0 1-2.4 2.4h-7.2a2.4 2.4 0 0 1-2.4-2.4v-7.2a2.4 2.4 0 0 1 2.4-2.4zm25.697 12.703a2.4 2.4 0 0 0 .703-1.697v-8.606a2.4 2.4 0 0 0-2.4-2.4h-7.2a2.4 2.4 0 0 0-2.4 2.4v7.2a2.4 2.4 0 0 1-2.4 2.4h-8.606a2.4 2.4 0 0 0-1.697.703L13.531 36.125a2.4 2.4 0 0 0-.703 1.697v8.606a2.4 2.4 0 0 0 2.4 2.4h7.2a2.4 2.4 0 0 0 2.4-2.4v-7.2a2.4 2.4 0 0 1 2.4-2.4h8.606a2.4 2.4 0 0 0 1.697-.703z" opacity=".4" style="fill:#d9d9d9;fill:color(display-p3 .851 .851 .851);fill-opacity:1"/></mask><g mask="url(#huly-icon_svg__f)"><g filter="url(#huly-icon_svg__g)" opacity=".5" style="mix-blend-mode:overlay"><ellipse cx="46.756" cy="13.72" fill="#6682FF" rx="8.283" ry="17.917" style="fill:#6682ff;fill:color(display-p3 .4 .5103 1);fill-opacity:1" transform="rotate(-49.071 46.756 13.72)"/></g><g filter="url(#huly-icon_svg__h)" opacity=".2" style="mix-blend-mode:overlay"><ellipse cx="2.687" cy="5.811" fill="#6682FF" rx="2.687" ry="5.811" style="fill:#6682ff;fill:color(display-p3 .4 .5103 1);fill-opacity:1" transform="scale(-1 1)rotate(49.071 -30.696 -44.394)"/></g></g></g><defs><filter id="huly-icon_svg__c" width="49.683" height="49.683" x="5.987" y="5.987" color-interpolation-filters="sRGB" filterUnits="userSpaceOnUse"><feFlood flood-opacity="0" result="BackgroundImageFix"/><feBlend in="SourceGraphic" in2="BackgroundImageFix" result="shape"/><feGaussianBlur result="effect1_foregroundBlur_7015_61" stdDeviation="3.421"/></filter><filter id="huly-icon_svg__d" width="42.841" height="42.841" x="9.407" y="9.407" color-interpolation-filters="sRGB" filterUnits="userSpaceOnUse"><feFlood flood-opacity="0" result="BackgroundImageFix"/><feBlend in="SourceGraphic" in2="BackgroundImageFix" result="shape"/><feGaussianBlur result="effect1_foregroundBlur_7015_61" stdDeviation="1.71"/></filter><filter id="huly-icon_svg__e" width="36" height="36" x="12.705" y="12.828" color-interpolation-filters="sRGB" filterUnits="userSpaceOnUse"><feFlood flood-opacity="0" result="BackgroundImageFix"/><feBlend in="SourceGraphic" in2="BackgroundImageFix" result="shape"/><feColorMatrix in="SourceAlpha" result="hardAlpha" values="0 0 0 0 0 0 0 0 0 0 0 0 0 0 0 0 0 0 127 0"/><feOffset/><feGaussianBlur stdDeviation="1.283"/><feComposite in2="hardAlpha" k2="-1" k3="1" operator="arithmetic"/><feColorMatrix values="0 0 0 0 0.402546 0 0 0 0 0.297135 0 0 0 0 0.24443 0 0 0 1 0"/><feBlend in2="shape" result="effect1_innerShadow_7015_61"/></filter><filter id="huly-icon_svg__g" width="42.858" height="40.29" x="25.328" y="-6.425" color-interpolation-filters="sRGB" filterUnits="userSpaceOnUse"><feFlood flood-opacity="0" result="BackgroundImageFix"/><feBlend in="SourceGraphic" in2="BackgroundImageFix" result="shape"/><feGaussianBlur result="effect1_foregroundBlur_7015_61" stdDeviation="3.421"/></filter><filter id="huly-icon_svg__h" width="23.145" height="22.314" x="35.185" y="2.561" color-interpolation-filters="sRGB" filterUnits="userSpaceOnUse"><feFlood flood-opacity="0" result="BackgroundImageFix"/><feBlend in="SourceGraphic" in2="BackgroundImageFix" result="shape"/><feGaussianBlur result="effect1_foregroundBlur_7015_61" stdDeviation="3.421"/></filter><clipPath id="huly-icon_svg__a"><rect width="62" height="62" fill="#fff" rx="15" style="fill:#fff;fill-opacity:1"/></clipPath></defs></svg>