<?xml version="1.0" encoding="UTF-8"?>
<svg id="Layer_1" data-name="Layer 1" xmlns="http://www.w3.org/2000/svg" viewBox="0 0 960 960">
  <defs>
    <style>
      .cls-1 {
        fill: #0e0c16;
      }

      .cls-2 {
        fill: #fff;
      }

      .cls-3 {
        fill: #15293d;
      }

      .cls-4 {
        fill: #6b6e7f;
      }

      .cls-5 {
        fill-rule: evenodd;
      }

      .cls-5, .cls-6 {
        fill: #00acd7;
      }

      .cls-7 {
        fill: #b5a4a8;
      }

      .cls-8 {
        fill: #c9b8bc;
      }

      .cls-9 {
        fill: #333;
      }

      .cls-10 {
        fill: #132433;
      }

      .cls-11 {
        fill: #282b3a;
      }

      .cls-12 {
        fill: #79d4fd;
      }

      .cls-13 {
        fill: #f0f4fb;
      }

      .cls-14 {
        fill: #f9fafa;
      }

      .cls-15 {
        fill: #19364e;
      }

      .cls-16 {
        fill: #67d3fd;
      }
    </style>
  </defs>
  <g>
    <path class="cls-3" d="m336.55,657.11c-9.63,44.1-9.12,88.71-5.07,133.31,1.27,16.73,8.62,31.68,16.22,46.13,3.55,6.34,5.32,11.15,1.77,17.74-3.55,6.34-5.83,13.69.76,19.52,6.34,6.08,13.43,4.31,20.78,1.01,6.84-3.04,15.72-8.87,23.57-2.02,6.84-1.01,4.3-6.34,5.07-10.9,0-2.79-.51-5.32-3.04-7.1-8.11-2.28-13.94,3.8-20.78,6.08-4.31,1.27-10.14,5.32-12.67,1.01-3.29-5.07,3.29-8.62,6.59-11.91,5.07-5.07,12.42-6.84,16.47-12.67,2.03-5.32-.51-10.14-5.07-9.12-20.78,4.56-24.08-12.42-31.17-24.84-11.15-23.82-9.63-49.68-8.62-75.02.76-19.52,2.53-39.29,6.84-58.55,1.52-7.86,2.53-15.71,2.03-23.82.51-14.45,8.11-26.61,11.66-40.3,1.52-5.58,5.07-11.15.51-16.98-5.58,2.53-5.07,8.11-7.1,11.91-1.77,3.55-1.01,9.63-6.59,9.12-5.07-.51-6.59-6.84-7.35-11.15l-.51-1.27c-1.01-4.31-10.9-8.11-9.38,3.55-.51,11.15,10.14,20.28,5.83,31.93-3.04,3.04-3.8,6.59-1.27,10.14,2.53,4.56,1.77,9.12.76,13.94l-.25.25Z"/>
    <path class="cls-10" d="m467.08,477.41l-18.5,2.03c-12.42-2.03-17.74,9.63-27.12,13.69-9.38,7.35-17.74,15.97-29.15,20.53-9.63,7.35-20.78,13.43-22.05,29.15-9.63-8.87-12.17-19.01-15.21-28.64-2.53-7.35,3.8-8.36,8.36-10.64,7.86-3.55,14.7-7.86,8.62-18.25-1.27-2.53-9.63.76-5.58-7.35,3.55-6.84-1.52-8.36-7.6-8.11-15.97,1.27-18,5.58-17.49,21.04.76,18.76,2.53,36.24,13.43,52.21,3.8,5.32,7.1,10.9,12.67,14.7,4.31,8.62,12.67,14.95,12.67,25.6,8.11-.25,7.35-8.36,11.91-11.15,1.77,0,3.04.76,3.8,2.28.25,7.35,2.53,12.17,10.9,7.6l5.83.51c9.38.76,8.87-3.55,4.82-9.88-6.84-8.62-13.18-18.25-24.08-22.81-4.56-2.03-7.6-6.59-5.07-11.66,3.55-5.83,7.6-1.52,10.64,1.01,8.36,6.59,19.26,6.59,28.64,10.9,3.04,0,5.07-1.52,6.34-4.06.25-10.39,0-20.78-5.83-29.91-4.82-6.84-2.03-11.15,3.8-15.21,7.6-4.82,15.21-8.62,24.33-10.64,5.83-1.27,12.17-2.03,14.45-9.12,0-2.28-.76-4.06-3.55-3.55v-.25Zm127.74,331.77c3.8-29.4,5.07-59.56,27.88-82.63,12.37-13.44,22.93-28.44,31.43-44.61,6.52-11.24,10.7-23.67,12.32-36.56,1.61-12.89.61-25.97-2.94-38.46-1.52-5.32-4.82-11.15,3.8-15.21,10.14-4.82,16.47-13.18,12.42-25.35-4.06-11.66-10.9-18.25-24.08-17.74-4.56,1.01-18-2.03-22.81,0-1.01.76,13.43,5.58,15.21,6.84,3.29,2.53,7.6,3.29,11.15,5.07,5.58,3.29,10.39,7.6,8.11,14.45-2.03,6.34-7.6,7.6-13.69,6.08h-.76c-7.1.51-18-5.58-15.71,10.14.76,1.52,1.77,3.8,3.29,4.06,16.22,3.04,16.98,15.71,18.25,28.64,2.35,22.06-3.41,44.23-16.22,62.35-9.08,12.9-18.81,25.34-29.15,37.26-20.78,26.87-25.6,74.77-28.13,106.45-.25,3.55,5.07.25,7.6-5.83l2.28-15.21-.25.25Z"/>
    <path class="cls-10" d="m655.4,549.9c-20.53,2.03-29.91-16.47-44.86-25.09-8.11-4.56-15.21-11.15-22.81-16.22-5.07-3.04-5.83-6.08-4.06-11.66,4.06-13.18-4.82-24.08-17.23-18.5-17.74,8.11-32.95,1.27-49.17-1.52-16.73-2.79-32.95-2.53-49.17.76l2.03,4.31c4.82,5.07,10.64,3.29,15.97,2.53,21.8-2.03,41.31,2.03,60.07,14.45,19.77,13.18,42.83,21.29,60.83,37.26,7.1,6.08,14.45,10.9,16.22,20.78,1.01,5.07,4.31,7.1,9.12,6.59,6.59-2.28,14.19-2.53,19.01-8.36-7.1-8.11,6.34-1.01,4.06-5.32h0Zm-60.83,257c-7.1,1.52-5.58,8.62-8.62,12.93h3.29c-3.04,10.14-6.08,20.28-11.15,29.65-22.05,29.15-48.41,49.17-87.44,45.62-2.28-.51-12.93.51-15.21,1.77-7.1,11.91,5.32,11.66,9.12,13.94,3.8,0,8.62.51,11.41,0,8.87-2.28,25.6,13.43,31.68,5.07,10.14-2.53,10.9-13.18,16.73-17.74,11.41-8.36,22.3-19.26,29.65-31.93,3.8-14.7,13.94-12.67,24.58-9.38,8.36,1.77,12.67-4.06,14.45-10.14,1.77-5.58-2.53-13.43-6.34-14.45-16.98-3.55-16.22-14.45-13.69-26.87"/>
    <path class="cls-3" d="m397.63,579.56c-1.01-3.29,2.28-6.59-.51-9.63-3.04,0-4.06,3.55-6.59,5.07-.51-3.8,1.27-7.6-1.01-10.64-6.59,2.53-5.07,9.63-9.63,15.71,5.07-15.46-7.86-20.28-15.46-24.84,3.29,5.83,4.56,12.17,0,17.74-6.08,7.1-9.38,15.97-13.43,24.33-1.27,2.79-1.01,7.6-4.82,8.11-5.07.51-3.55-5.83-6.59-7.6-2.03,6.59-.25,13.43,6.08,14.7,5.58.76,6.59-4.56,8.87-8.87,2.03-3.55-11.41,21.29-10.9,41.06,6.34-3.04,7.6-9.38,9.63-15.21,5.58-17.23,16.73-37.26,24.84-54.75-2.03,13.43-1.52,21.04,15.21,22.81l6.34-3.04c6.34-4.31,6.08-10.14,4.56-18.5-3.55-1.27-3.8,3.29-6.59,3.55h0Z"/>
    <path class="cls-10" d="m448.58,479.44c-4.06-1.27-10.14-3.29-13.18-5.58-25.09-19.26-52.21-23.06-79.58-4.06,2.53,2.03,10.14,0,6.34,5.83-2.28,3.29-8.87,4.31-5.58,9.88,3.55,5.83,8.36-2.53,12.67-.25,1.27-.76,1.52-.51,1.77-1.77-3.55-7.35,4.31-12.17,10.9-13.18,12.8-1.63,25.81.39,37.51,5.83,11.66,5.07-2.03,12.67,1.77,18.5,11.41-1.52,16.47-13.69,27.37-15.21Z"/>
    <path class="cls-3" d="m485.84,910.82c-.76-3.8-11.15.51-6.59-7.86-1.01-3.8-4.06-5.07-7.1-6.08-15.21-2.79-29.65-8.11-43.34-15.21-12.17-5.32-20.28-16.98-32.95-21.54-2.03,3.29,0,8.11-3.8,10.9,25.78,23.62,58.88,37.66,93.78,39.79"/>
    <path class="cls-9" d="m695.94,637.85c3.04,2.79,5.83,6.34,9.12,8.62,6.59,3.8,13.94,5.32,19.26-1.52,5.07-6.59,1.01-12.67-3.29-18.5-7.1-10.14-18.5-10.14-27.88-14.7-3.04,1.01-7.6-1.77-8.36,3.04-1.01,4.31,2.28,5.83,5.58,6.84,7.35,2.53,15.21,3.8,20.78,12.67-.76,13.43-12.67-9.38-19.26-10.9-3.55-.76-6.08-12.42-7.6-7.6-1.27,3.8-1.52,4.56,3.29,11.15,1.77,2.53,6.59,7.6,8.36,10.9"/>
    <path class="cls-3" d="m519.55,910.57c-7.86,6.59-15.71-5.83-23.57,0,8.11,1.01,13.69,5.32,18.25,13.18,4.05,7.6,10.64,15.21,20.02,11.41,8.87-3.8,8.11-13.69,6.08-22.05-1.52-6.34,1.52-10.14,3.8-14.95-6.59,3.04-10.14,12.17-18.76,11.15.51,2.79,3.04,5.07,2.53,8.62-4.31-.51-6.34-3.8-8.36-7.6v.25Zm-184.77-270.94l6.59-5.58c1.01-6.59-8.87-13.69-10.14-19.26-1.52-5.32-3.29-9.63,1.27-14.45-2.53-6.34,1.01-7.35,6.34-5.32-8.87-8.11-15.21-7.6-20.02,2.79-7.6,17.74,3.29,34.22,16.98,45.62l-1.01-3.8Z"/>
    <path class="cls-10" d="m598.63,856.32c-17.74-8.36-24.33,2.53-24.58,10.14,5.83-11.41,15.46-12.17,25.85-10.14h-1.27Z"/>
    <path class="cls-12" d="m378.63,573.73c-16.73,21.29-22.81,46.64-32.19,70.46-3.04,24.84-6.59,49.93-8.87,75.02-2.03,22.56-2.53,45.11,3.29,67.16,1.52,5.83,1.77,12.17,7.1,16.22l1.01-.76.51-1.27c8.13,12.28,20.8,20.85,35.23,23.82,9.12,2.53,15.21,9.63,17.49,21.29,4.06,22.05,15.27,32.53,38.02,41.06,10.14,3.8,20.78,6.08,30.41,8.87,39.03,12.67,70.46-6.59,95.04-35.48,12.67-14.45,11.66-33.2,14.19-49.93,3.8-24.08,8.36-48.16,13.43-71.73,1.52-6.59,7.1-10.9,11.15-16.22,8.11-11.15,7.35-22.56-2.28-29.91-10.9-8.62-21.8-7.6-30.92,2.79-10.14,11.13-17.67,24.37-22.05,38.78-2.79,10.39-12.67,19.52-12.17,31.93.25,7.6,1.01,14.7.25,22.3-.51,9.38-3.8,11.15-13.69,9.12-16.22-3.29-24.59-15.97-35.48-26.36-1.37-1.32-2.28-3.03-2.6-4.9-.32-1.87-.03-3.79.82-5.49,6.08-12.93,4.31-26.87,5.07-40.55.76-9.12,3.55-16.98,11.91-22.56,7.6-5.07,10.14-13.43,11.41-21.8,1.52-9.38-3.29-15.46-11.91-18.25-5.83-1.52-11.15,0-10.64,7.1.51,10.9-3.29,16.47-14.7,14.7-8.36-1.52-17.49-14.19-13.69-21.54,10.64-21.8-11.91-32.19-15.21-48.92-.51-1.52.51-.76-1.01-.76-14.7,0-23.57-14.19-37.51-15.71-5.07-1.52-8.87,3.04-13.94,3.04-10.64-2.53-21.8-5.07-17.49-21.54Z"/>
    <path class="cls-12" d="m423.49,608.45c1.27,2.53,4.31,4.31,7.35,3.04,13.69-5.07,15.21,5.07,18.25,13.94,1.27,4.06,2.03,9.63,4.82,11.41,10.64,6.84,7.6,11.66,2.03,21.29-4.82,8.11,3.29,19.01,11.15,24.58,7.6,5.58,17.23,5.07,25.09-1.77,2.53-2.28,2.79-5.58,2.28-9.12-.51-3.55-3.55-9.75,2.03-10.14,7.35-.51,13.18,5.07,13.18,12.17s-1.77,17.49-8.11,20.28c-16.98,8.11-17.23,22.81-16.73,37,.53,11.28-1.46,22.54-5.83,32.95-2.28,5.32-1.27,8.36,4.06,12.67,12.17,10.14,21.8,23.57,39.03,27.88,10.9,2.53,16.98-1.01,17.49-12.42,0-11.15-1.77-22.05.51-33.46,1.27-6.34,1.52-11.91,8.36-14.7,3.04-1.27,5.83-3.55,5.07-7.6-2.79-21.04,14.7-30.92,25.85-43.59,4.82-5.58,15.46.51,21.29,5.83,5.83,5.58,8.36,14.45,1.77,20.28-17.74,16.47-16.98,38.27-21.8,59.05-3.8,16.47-7.35,32.95-7.6,49.17-1.01,29.15-22.56,45.11-40.81,57.53-13.43,9.38-29.65,12.42-44.35,9.38-19.77-4.06-43.09-10.14-58.8-16.47-15.71-6.34-25.09-17.49-26.87-36.24-1.52-13.18-13.43-16.22-21.8-19.01-7.93-2.42-15.27-6.47-21.55-11.88-6.28-5.41-11.37-12.07-14.95-19.55v14.19c1.01,10.64,9.12,17.49,14.7,25.35,3.8,5.32,8.11,3.04,12.42,1.52,4.82-2.03,10.14-5.07,9.88,4.56,2.28,7.1,3.29,14.95,11.66,18,2.53,2.03,2.03,4.56,1.01,7.35,7.6,10.64,17.74,18.5,30.16,22.81,15.21,7.35,30.41,12.67,46.64,16.47l7.6,3.04c42.58,7.35,71.73-12.93,94.79-45.62,10.14-17.23,12.17-20.28,14.19-31.43l.25-9.12c1.52-20.28,3.29-36.24,7.6-52.46,3.04-12.17,7.1-24.58,15.21-37.51,9.88-12.67,16.73-26.61,23.32-39.03,12.17-24.33,25.35-48.66,17.23-77.81-2.03-7.1-4.56-12.93-13.18-14.45-6.08-1.01-4.56-2.53.51-4.56-4.31-17.49,9.12-9.38,9.12-9.38-1.01-3.29-4.82-3.8-5.58-7.35-1.01-3.29,0-7.1-1.77-10.14s-5.07-3.8-7.86-5.07c-2.79-.76-8.87,1.27-7.35-3.55,4.56-12.67-7.1-15.71-12.67-20.28-26.87-22.05-58.8-36.5-89.47-52.46-13.18-7.1-28.64-2.79-43.09-2.53-4.31,0-8.36.51-12.67.76-14.45,6.34-31.17,6.84-43.09,19.01-5.32,5.07-10.64,7.86-2.28,14.7,8.36,7.1,4.56,19.01,8.87,27.88,1.77,8.11,2.28,16.73,6.59,24.33,3.55,1.01,5.83-1.27,6.08-3.8,1.52-8.87,7.6-13.69,13.94-18.5,24.08-24.33,58.04-29.91,79.84-10.14,27.88,24.58,38.02,52.97,16.98,83.64-5.66,8.69-13.96,15.35-23.66,19-9.71,3.65-20.34,4.1-30.32,1.28-12.63-3.34-24.25-9.7-33.88-18.53s-16.96-19.87-21.37-32.16c-4.06-5.07,1.01-15.21-9.12-16.98-5.32,2.28-7.6,7.6-12.17,10.9-4.06,6.59-16.98,1.52-17.74,12.67,7.35,2.79,14.7,5.07,18.25,12.93Z"/>
    <path class="cls-8" d="m381.16,835.8c-9.88,5.07-18.25,8.62-24.08,18.5-1.52,2.53-4.56,5.07-2.03,8.36,2.03,3.04,6.84,4.06,9.88,2.79,10.14-3.8,16.98-7.1,27.12-11.15-2.53-9.63-6.34-15.97-10.9-18.5Zm-55.25-217.72c1.01,6.08,7.6,8.87,12.93,13.43,4.82-1.52,7.35-9.12,5.07-12.17-5.83-7.6-8.36-10.14-11.91-17.74-13.18,2.28-7.1,11.15-6.08,16.47h0Z"/>
    <path class="cls-13" d="m422.22,494.4c.25-3.29,3.29-4.06,5.58-5.58,7.1-5.07,6.08-10.14-1.27-13.43-15.21-6.59-30.92-10.39-47.4-6.59-7.86,1.77-13.69,5.32-6.84,14.19,4.82,7.1-1.01,13.94,0,21.04,3.29,19.26,5.07,20.28,21.29,9.63,12.67-2.03,19.26-12.67,28.64-19.26"/>
    <path class="cls-8" d="m427.04,547.37c-.87-1.95-2.36-3.55-4.24-4.56-1.88-1.01-4.04-1.37-6.15-1.01-7.1,1.01-11.41-2.79-16.22-6.34-4.82-3.29-9.12-12.67-15.71-3.29-5.07,6.84-3.55,16.22,4.31,19.01,11.91,4.31,18.5,13.18,26.61,21.04,11.15,3.8,16.22.76,16.98-10.39,0-5.58,0-11.15-5.58-14.45Z"/>
    <path class="cls-13" d="m391.05,515.43c-5.83-1.77-7.1,3.8-13.69,3.04-1.01-9.63-5.83-19.01-2.53-29.65.76-3.29-1.01-5.07-4.06-6.34h2.53c3.8,11.41-4.31,14.19-12.17,15.21-6.34.76-9.88,1.27-9.12,10.64,1.27,12.67,5.83,22.81,13.18,32.95,5.07,6.34,10.9,5.83,10.9.76-.51-15.97,11.41-22.05,19.52-30.92"/>
    <path class="cls-11" d="m426.28,545.85c4.56,22.05,5.58,26.11-8.87,26.87,3.8,7.6-3.55,6.84-7.6,5.83,2.53,10.9,9.88,6.59,16.47,4.06,6.34-.76,6.84-5.32,8.87-10.14,1.27-3.29,2.53-3.8,1.77-5.58,1.52-8.87-2.28-17.74-7.6-24.84-1.27,2.53.76,5.07-2.53,5.32l-.51-1.52Z"/>
    <path class="cls-16" d="m427.54,583.11c-5.07-2.03-12.67,2.28-15.97-5.32l-4.31-1.52c-4.31,6.08-2.53,15.21-10.39,19.26,4.31,2.53,8.11-1.01,12.17-1.27"/>
    <path class="cls-4" d="m413.6,534.19c3.55,2.03,7.6,2.53,8.62-2.03,1.52-6.59-2.53-10.64-8.36-12.67-4.06-1.77-10.14-3.04-11.41,2.53-2.03,8.11,7.1,8.36,11.15,12.17Z"/>
    <path class="cls-2" d="m391.81,566.13l-.51,1.27c-.76,6.59-9.38,15.21,0,18.76,7.1,2.53,4.56-9.88,8.36-14.19-1.01-4.06-3.55-6.08-7.86-5.83"/>
    <path class="cls-12" d="m624.48,573.72c-5.32,14.95-2.53,19.77,13.69,23.82,4.06,1.01,7.86,2.79,8.11,6.59.76,12.93,7.86,24.84,2.53,39.03-8.87,22.81-16.98,45.11-34.72,63.36-2.03,2.03-9.12,9.63,0,16.22,11.91-10.9,19.01-23.82,28.39-36.5,18-24.08,19.01-52.72,13.43-79.84-2.53-12.42-14.19-10.9-21.04-16.47-9.88-1.77,1.27-15.97-10.39-16.22h0Zm23.82,9.63c10.14,5.07,20.53,4.56,24.33-6.59,3.55-11.41-5.32-16.98-16.22-19.26l-5.83-1.52c-6.34.51-12.42,1.77-18,5.07.76,3.55,4.31,4.31,7.1,5.58,3.55,4.56,9.63,3.04,16.22,6.59-7.1,1.01-13.43,0-17.23,4.31,1.52,4.06,6.08,4.06,9.38,5.83h.25Zm-72.49-89.47c1.52-.76,1.77-2.79,0-4.06-5.07-3.8-10.14-2.28-16.47.51,5.83,4.56,10.9,6.34,16.47,3.55h0Z"/>
    <path class="cls-8" d="m590.26,837.57c-1.77,7.1,1.52,9.38,5.83,11.15,4.31,1.77,8.36,2.53,10.64-3.04,3.04-7.35-3.04-7.1-6.34-8.62-3.55-1.52-7.6-4.56-10.14.51Z"/>
    <path class="cls-7" d="m519.3,909.3c0,2.03-1.01,4.31,0,5.58.95,2.24,2.44,4.2,4.35,5.71,1.9,1.51,4.16,2.51,6.55,2.91,2.53.25,3.29-3.04,3.55-5.32,1.01-6.59-3.04-8.62-8.11-9.88l-6.34,1.01Z"/>
    <path class="cls-16" d="m473.17,900.68l-45.62-17.74c13.53,9.55,29.19,15.64,45.62,17.74Z"/>
    <path class="cls-10" d="m441.99,588.94c4.06,13.03,11.39,24.81,21.28,34.21,9.89,9.4,22.02,16.12,35.24,19.52,38.27,11.41,79.84-27.88,68.94-68.43-12.17-45.62-53.73-67.67-99.35-44.35-5.34,3.28-9.71,7.92-12.67,13.43-9.38,7.86-13.94,23.06-13.43,45.62Z"/>
    <path class="cls-15" d="m495.47,755.45c-7.35,3.55-4.06,10.14-2.03,14.19,5.07,11.66,13.69,20.53,26.61,24.08,8.87,2.53,15.97-3.55,13.43-12.67-3.29-10.64-8.36-20.78-12.67-31.43-10.39-3.55-9.38,3.29-8.36,9.12.76,6.34,6.34,11.41,5.57,19.26-11.91-3.8-11.91-18.5-22.56-22.81"/>
    <path class="cls-8" d="m495.98,755.2c6.08,9.12,9.12,16.22,17.74,23.32,2.79,2.03,5.32,4.56,8.62,1.77,2.53-2.53,1.27-5.58.25-8.11-2.28-6.59-6.84-17.74-8.62-21.04-.51-1.77-.76-1.77-2.53-1.77-2.03,0-7.35,2.03-15.46,5.83Z"/>
    <path class="cls-10" d="m638.67,577.78h8.11c6.08-.51,15.71,4.82,16.47-4.56.51-6.59-9.88-8.62-16.47-9.63-2.53,0-4.82.51-7.1,1.01-2.53,4.06-1.77,8.62-1.01,13.18"/>
    <path class="cls-12" d="m441.99,588.94c-1.01-16.31,3.75-32.46,13.43-45.62-11.91,3.8-12.17,15.97-18.5,23.57l-1.77,5.32c8.11,3.29.76,12.67,6.84,16.73Z"/>
    <path class="cls-14" d="m456.69,560.04c-12.67,34.98,7.1,57.53,39.79,73.5,24.08,11.41,54.24-5.58,63.62-32.44,7.6-22.05-12.67-61.59-35.99-69.95-26.36-9.63-58.55,4.31-67.42,28.89"/>
    <path class="cls-1" d="m476.72,560.54c-2.03,7.86-2.03,16.73,8.62,21.54,10.14,4.56,21.29,0,25.09-10.14,3.04-8.87-3.04-22.81-11.41-25.35-8.11-2.53-18.25,3.04-22.3,13.94"/>
  </g>
  <g>
    <path class="cls-5" d="m90.03,155.42c-1.79,0-2.24-.89-1.34-2.24l9.39-12.08c.89-1.34,3.13-2.24,4.92-2.24h159.67c1.79,0,2.24,1.34,1.34,2.68l-7.6,11.63c-.89,1.34-3.13,2.68-4.47,2.68l-161.9-.45Z"/>
    <path class="cls-5" d="m22.49,196.56c-1.79,0-2.24-.89-1.34-2.24l9.39-12.08c.89-1.34,3.13-2.24,4.92-2.24h203.95c1.79,0,2.68,1.34,2.24,2.68l-3.58,10.73c-.45,1.79-2.24,2.68-4.03,2.68l-211.55.45Z"/>
    <path class="cls-5" d="m130.73,237.71c-1.79,0-2.24-1.34-1.34-2.68l6.26-11.18c.89-1.34,2.68-2.68,4.47-2.68h89.45c1.79,0,2.68,1.34,2.68,3.13l-.89,10.73c0,1.79-1.79,3.13-3.13,3.13l-97.5-.45Z"/>
    <g>
      <path class="cls-5" d="m594.97,147.37c-28.18,7.16-47.41,12.52-75.14,19.68-6.71,1.79-7.16,2.24-12.97-4.47-6.71-7.6-11.63-12.52-21.02-17-28.18-13.86-55.46-9.84-80.95,6.71-30.41,19.68-46.07,48.75-45.62,84.98.45,35.78,25.05,65.3,60.38,70.22,30.41,4.03,55.91-6.71,76.03-29.52,4.03-4.92,7.6-10.29,12.08-16.55h-86.32c-9.39,0-11.63-5.81-8.5-13.42,5.81-13.86,16.55-37.12,22.81-48.75,1.34-2.68,4.47-7.16,11.18-7.16h162.8c-.89,12.08-.89,24.15-2.68,36.23-4.92,32.2-17,61.72-36.67,87.66-32.2,42.49-74.24,68.88-127.47,76.03-43.83,5.81-84.53-2.68-120.31-29.52-33.1-25.05-51.88-58.14-56.8-99.29-5.81-48.75,8.5-92.58,38.02-131.04,31.75-41.59,73.8-67.98,125.23-77.37,42.04-7.6,82.29-2.68,118.52,21.92,23.7,15.65,40.7,37.12,51.88,63.06,2.68,4.03.89,6.26-4.47,7.6Z"/>
      <path class="cls-6" d="m743.01,394.69c-40.7-.89-77.82-12.52-109.13-39.36-26.39-22.81-42.94-51.88-48.3-86.32-8.05-50.54,5.81-95.26,36.23-135.07,32.65-42.94,72.01-65.3,125.23-74.69,45.62-8.05,88.56-3.58,127.47,22.81,35.33,24.15,57.25,56.8,63.06,99.74,7.6,60.38-9.84,109.58-51.43,151.62-29.52,29.97-65.75,48.75-107.34,57.25-12.08,2.24-24.15,2.68-35.78,4.03Zm106.45-180.69c-.45-5.81-.45-10.29-1.34-14.76-8.05-44.28-48.75-69.32-91.24-59.48-41.59,9.39-68.43,35.78-78.27,77.82-8.05,34.89,8.94,70.22,41.15,84.53,24.6,10.73,49.2,9.39,72.9-2.68,35.33-18.34,54.56-46.96,56.8-85.42h0Z"/>
    </g>
  </g>
</svg>