<?xml version="1.0" encoding="UTF-8"?>
<svg id="Layer_1" data-name="Layer 1" xmlns="http://www.w3.org/2000/svg" viewBox="0 0 960 960">
  <defs>
    <style>
      .cls-1 {
        fill: #f58220;
      }

      .cls-1, .cls-2, .cls-3 {
        stroke-width: 0px;
      }

      .cls-1, .cls-3 {
        fill-rule: evenodd;
      }

      .cls-2, .cls-3 {
        fill: #7c6a55;
      }
    </style>
  </defs>
  <path class="cls-3" d="M379.26,334.8v-9.86c3.18,2.67,7.02,4.76,11.51,6.31,4.52,1.55,8.42,2.31,11.7,2.31,14.69,0,22.02-5.83,22.02-17.51,0-4.01-1.59-7.44-4.83-10.29-3.21-2.85-8.45-5.77-15.72-8.8-8.95-3.79-15.25-7.71-18.87-11.78-3.62-4.07-5.43-8.98-5.43-14.78,0-7.41,2.9-13.39,8.73-17.97,5.8-4.55,12.97-6.83,21.52-6.83,8.05,0,14.91,1.61,20.65,4.8v9.26c-6.96-4.4-14.13-6.59-21.58-6.59-6.14,0-11.1,1.55-14.88,4.67-3.77,3.1-5.68,7.13-5.68,12.11,0,4.34,1.18,7.83,3.56,10.53,2.4,2.7,7.64,5.8,15.72,9.29,9.76,4.25,16.47,8.23,20.12,11.87,3.65,3.64,5.49,8.47,5.49,14.51,0,7.23-2.81,13.2-8.36,17.91-5.58,4.71-13.29,7.07-23.08,7.07-9.01,0-16.53-2.06-22.58-6.22h0ZM478.91,357.45c-3.4,8.2-7.2,14.27-11.32,18.24-4.15,3.98-9.48,5.95-16,5.95-2.74,0-5.18-.43-7.3-1.24v-8.19c2.18.82,4.74,1.24,7.67,1.24,7.49,0,13.38-5.04,17.72-15.12l8.67-20.19-35.43-90.36h9.39l28.26,74.18c.59,1.61,1.03,2.82,1.28,3.64.25,1.12.5,2.12.81,3.03h.37l2.18-6.16,30.16-74.7h9.14l-45.6,109.67h0ZM584.44,338.84h8.42v-59.19c0-11.08-2.62-19.55-7.89-25.35-5.27-5.8-12.72-8.71-22.36-8.71-5.24,0-10.82.94-16.75,2.85-5.95,1.88-10.67,4.16-14.13,6.83v9.9c9.76-8.07,19.77-12.11,30.07-12.11,15.09,0,22.64,9.77,22.64,29.32l-28.76,4.19c-21.64,3.31-32.43,12.9-32.43,28.77,0,7.41,2.59,13.54,7.77,18.39,5.18,4.86,12.2,7.28,21.08,7.28,6.96,0,13.29-1.85,18.96-5.55,5.71-3.7,10.04-8.65,13.04-14.87h.34v18.24h0ZM558.68,293.49l25.76-3.64v8.89c0,10.23-2.96,18.61-8.95,25.1-5.96,6.46-13.44,9.71-22.46,9.71-6.58,0-11.73-1.76-15.41-5.25-3.68-3.49-5.52-7.92-5.52-13.32,0-6.86,1.96-11.81,5.93-14.87,3.96-3.03,10.85-5.25,20.65-6.62h0ZM651.66,256.37c-2.81-1.97-6.11-2.95-9.89-2.95-7.36,0-13.53,3.7-18.56,11.11-4.99,7.41-7.48,17.94-7.48,31.54v42.77h-8.23v-91.06h8.23v20.16h.37c2.12-6.95,5.52-12.35,10.14-16.21,4.62-3.85,9.98-5.77,16.09-5.77,3.46,0,6.58.55,9.33,1.61v8.8h0ZM667.41,338.84v-91.06h8.42v91.06h-8.42ZM750.53,338.84v-18.24h-.34c-2.99,6.22-7.33,11.17-13.03,14.87-5.68,3.7-12.01,5.55-18.96,5.55-8.89,0-15.91-2.43-21.08-7.28-5.18-4.86-7.77-10.99-7.77-18.39,0-15.88,10.79-25.47,32.44-28.77l28.75-4.19c0-19.55-7.55-29.32-22.64-29.32-10.29,0-20.3,4.04-30.07,12.11v-9.9c3.46-2.67,8.17-4.95,14.13-6.83,5.93-1.91,11.51-2.85,16.75-2.85,9.64,0,17.09,2.91,22.36,8.71,5.27,5.8,7.89,14.27,7.89,25.35v59.19h-8.42ZM724.77,293.49c-9.79,1.37-16.69,3.58-20.65,6.62-3.96,3.07-5.93,8.01-5.93,14.87,0,5.4,1.84,9.83,5.52,13.32,3.68,3.49,8.83,5.25,15.41,5.25,9.01,0,16.5-3.25,22.46-9.71,5.99-6.5,8.95-14.87,8.95-25.1v-8.89l-25.76,3.64h0ZM837.21,338.84v-54.57c0-10.77-2.03-18.7-6.05-23.71-4.02-5.01-10.29-7.5-18.81-7.5-8.05,0-15.12,3.06-21.21,9.17-6.08,6.1-9.14,14.84-9.14,26.19v50.42h-8.42v-129.85h8.42v55.19h.37c7.36-12.39,18.09-18.58,32.16-18.58,10.1,0,17.81,3.16,23.11,9.5,5.3,6.34,7.95,15.45,7.95,27.29v56.46h-8.39Z"/>
  <path class="cls-1" d="M567.63,398.12c-25.67,0-43.9,7.81-61.51,25.62v-22.91l-89.05.11v17.78c22.36.33,30.19,2.99,31.3,25.6v268.3c-1.01,22.17-6.04,23.76-28.99,24.4l-2.31.08v14.71h120.59v-14.71l-2.29-.09c-17.93-.68-25.79-1.65-29.17-10.08v-244.29c6.04-42.87,23.17-66.39,48.17-66.39,26.8,0,42.83,31.85,42.83,98.86s-16.76,100.12-47.82,100.12c-6.49,0-12.91-1.97-18.67-5.51v17.95c8.43,2.79,17.42,4,28.23,4,28.8,0,55.69-11.47,72-31.63,16.64-20.47,26.26-53.47,26.26-90.73,0-70.15-32.16-111.18-89.58-111.18h0ZM567.63,398.12h0ZM160.07,395.06h.31c58.59,0,102.07,41.77,102.07,111.56,0,76.01-53.12,122.36-116.68,122.36-28.14,0-102.76-14.88-102.76-86.33v-182.98c0-35.75-2.34-42.38-29.55-42.38h-2.42v-14.54h89.45c-.26,5.24,0,257.02,0,257.02,1.84,10.81,2.66,54.46,48.15,54.46,28.07,0,54.11-32.37,54.11-100.56s-25.27-100.97-52.04-100.97c-10.05,0-19.83,4.46-27.91,12.48v-21.01c10.76-6.2,22.52-9.12,37.27-9.12h0ZM160.66,395.06h0ZM359.37,503.7c.11-.54.15-1.02.15-1.55v-83.29h41.83v-18.07h-41.83v-65.67h-23.95s-.34,2.08-.34,2.08c-3.71,20.62-7.78,32.29-14.99,43.54-9.12,14.25-24.45,20.09-42,20.9l-8.86.11v17.12h30.23v74.17l.11,2.43c-.11,67.3-2.07,87.95,10.61,104.14,10.51,13.51,31.23,31.65,76.34,31.65,10.74,0,19.82-1.21,28.18-3.97v-17.96c-5.75,3.5-12.16,5.5-18.65,5.5-37.54,0-36.85-21.08-36.84-111.13h0ZM359.37,503.7h0ZM898.52,570.24v-.41s0-93.56,0-93.56c0-25.56-2.97-40.04-10.91-53.26-11.53-20.45-31.57-30.01-59.65-30.01-32.04,0-54.99,11.58-72.96,37.14l-.2-.17v-29.27h-86.97v13.66h2.39c26.07.46,28.94,3.38,28.94,38.61v117.27c0,36.93-2.48,39.43-29.76,39.84l-1.95.03v15.01h119.34v-15.01l-2.41-.03c-26.84-.41-29.34-2.46-29.34-39.84v-84.64c0-13.54,4.54-30.43,11.11-42.37,10.24-17.6,24.73-26.69,41.47-26.69,23.84,0,34.8,16.57,34.8,62.27v91.43c0,36.53-2.9,39.43-29.34,39.84l-2.43.03v15.01h120.02v-15.01l-2.41-.03c-27.33-.41-29.76-2.91-29.76-39.84h0ZM936.04,310.53c14.68,8.51,16.28,33.27,3.58,55.31-12.69,21.98-34.87,32.94-49.52,24.43-14.7-8.5-16.28-33.25-3.63-55.25,12.7-22.03,34.9-32.99,49.57-24.49Z"/>
  <rect class="cls-2" x="667.77" y="208.29" width="7.9" height="23.16"/>
</svg>