<svg xmlns="http://www.w3.org/2000/svg" fill="none" viewBox="0 0 24 24" id="Fastify-Icon--Streamline-Svg-Logos" height="24" width="24">
  <desc>
    Fastify Icon Streamline Icon: https://streamlinehq.com
  </desc>
  <path fill="#000000" d="M23.010325 6.60455 23.75 4.688775l-0.03215 -0.1187 -7.317775 1.928025c0.78025 -1.128625 0.51225 -2.033675 0.51225 -2.033675s-2.3369 1.492325 -4.104125 1.453275c-1.767225 -0.03905 -2.336925 -0.5107 -5.046725 0.35375 -2.7098 0.863725 -3.475475 3.515325 -4.2611 4.085C2.714775 10.926125 0.25 12.781425 0.25 12.781425l0.00536 0.032925 2.2220525 -0.707525s-0.609495 0.574275 -1.9042875 2.3193c0 0 -0.022205 -0.020675 -0.06049 -0.0559l0.002295 0.01225s1.0405825 1.590375 2.06202 1.296325c0.1026 -0.02985 0.218225 -0.07885 0.344575 -0.143175 0.411175 0.22895 0.947925 0.45405 1.540575 0.516075 0 0 -0.401225 -0.4663 -0.735825 -0.996925 0.09035 -0.0582 0.183 -0.1187 0.277175 -0.17995l-0.04365 0.030625 0.8461 0.310875 -0.093425 -0.79555c0.003075 -0.001525 0.005375 -0.003825 0.008425 -0.005375l0.83155 0.305525 -0.103375 -0.723575c0.105675 -0.05515 0.210575 -0.1072 0.315475 -0.15545l0.866775 -3.2787 3.584225 -2.444875 -0.28485 0.7167c-0.72665 1.787125 -2.091125 2.209025 -2.091125 2.209025l-0.569675 0.215925c-0.423425 0.500775 -0.601825 0.62405 -0.7473 2.30475 0.3415 -0.08575 0.667675 -0.106425 0.963225 -0.0268 1.5314 0.4127 2.062025 2.25805 1.649325 2.76875 -0.103375 0.127875 -0.349175 0.3461 -0.659275 0.6026h-0.62175l-0.008425 0.50385c-0.021425 0.016825 -0.042875 0.032925 -0.06355 0.04975h-0.63245l-0.007675 0.4916c-0.055875 0.042875 -0.111775 0.084225 -0.165375 0.1248 -0.594175 0.01225 -1.346875 -0.506125 -1.346875 -0.506125 0 0.471675 0.392825 1.19755 0.392825 1.19755s0.026025 -0.01225 0.069675 -0.0337c-0.0383 0.028325 -0.059725 0.04365 -0.059725 0.04365s1.59035 1.0605 2.591875 0.667675c0.8905 -0.34915 3.196025 -2.1669 5.186075 -3.02755l6.0222 -1.586525 0.794025 -2.057425 -4.5896 1.209025v-1.847625l5.38515 -1.418825 0.794025 -2.057425 -6.177625 1.627875v-1.8484l6.97165 -1.8369Z" stroke-width="0.25"></path>
</svg>