<svg xmlns="http://www.w3.org/2000/svg" fill="none" viewBox="0 0 24 24" id="Knex--Streamline-Svg-Logos" height="24" width="24">
  <desc>
    Knex Streamline Icon: https://streamlinehq.com
  </desc>
  <path fill="#e16426" d="m23.61925 13.287725 -2.8926 -1.39735 2.740225 -1.281575c0.2125 -0.099675 0.33725 -0.3626 0.1903 -0.6077l-0.28475 -0.329625c-0.183775 -0.20095 -0.38335 -0.34755 -0.6258 -0.252175l-2.03585 0.767425c-0.04445 0.0167 -0.093175 0.018825 -0.1389 0.005875l-0.788075 -0.22325c-0.058475 -0.016525 -0.121275 -0.001 -0.165325 0.04075l-0.842975 0.8002c-0.188925 -1.0831 -0.629175 -2.07985 -1.261375 -2.92565L18.7465 7.875c0.05305 -0.00045 0.1018 -0.029475 0.1274 -0.076l0.436225 -0.7912c0.022675 -0.041225 0.058575 -0.073625 0.1018 -0.091975l2.0166 -0.859875c0.123825 -0.052775 0.200025 -0.310075 0.17625 -0.476975l-0.065625 -0.602175c-0.053625 -0.17295 -0.296425 -0.32515 -0.41255 -0.282275l-3.033425 1.0573 1.031425 -2.84385c0.079775 -0.220775 -0.0179 -0.4947975 -0.295125 -0.5642875L18.395 2.3120175c-0.272075 -0.0121175 -0.516825 0.025245 -0.620825 0.2641825l-0.89695 1.982175c-0.01955 0.04325 -0.0525 0.079125 -0.094 0.10235l-0.7151 0.399425c-0.05305 0.02965 -0.086475 0.085 -0.088125 0.145675l-0.030275 1.162325c-0.862725 -0.606225 -1.870275 -1.0195 -2.961275 -1.17655l0.865175 -0.878875c0.037275 -0.0379 0.051225 -0.0929 0.03645 -0.14385l-0.251075 -0.867925c-0.013025 -0.045175 -0.01065 -0.09345 0.0069 -0.13705l0.818 -2.0339525c0.0503 -0.1248425 -0.07775 -0.36076 -0.2127 -0.4619225l-0.472125 -0.379395c-0.160275 -0.08427025 -0.4396 -0.0202875 -0.491375 0.0920725L11.890375 3.2734 10.608775 0.5331775c-0.099675 -0.2126025 -0.3625 -0.337263 -0.607675 -0.1903875l-0.32965 0.284845c-0.20095 0.1837775 -0.34755 0.3832525 -0.252075 0.62578l0.767325 2.035785c0.0168 0.044525 0.018825 0.093175 0.005875 0.138875l-0.22315 0.788175c-0.016625 0.058375 -0.0011 0.121175 0.04075 0.165225l0.8001 0.842975c-1.0831 0.189025 -2.07985 0.629175 -2.925575 1.2614l-0.009725 -1.2323c-0.00035 -0.05315 -0.02945 -0.1018 -0.0759 -0.1275l-0.7913 -0.436225c-0.041125 -0.022675 -0.073525 -0.058475 -0.091975 -0.1017l-0.859775 -2.0167c-0.052775 -0.1238225 -0.3101 -0.200015 -0.477075 -0.1761475l-0.602175 0.0655425c-0.17285 0.053705 -0.32515 0.296505 -0.282275 0.41253l1.0574 3.033525 -2.843875 -1.031425c-0.22085 -0.079875 -0.49487 0.0179 -0.56436 0.295125l-0.03167 0.434475c-0.0121175 0.272 0.025245 0.516825 0.26418 0.620725l1.982175 0.89695c0.043325 0.01965 0.079225 0.0526 0.10235 0.0941l0.3995 0.7151c0.029575 0.05295 0.085025 0.086475 0.1457 0.088025l1.162225 0.0303c-0.606125 0.8627 -1.019475 1.870275 -1.17645 2.961275l-0.878975 -0.8652c-0.0378 -0.03725 -0.0928 -0.051125 -0.143825 -0.036425l-0.86795 0.25105c-0.045175 0.013125 -0.09335 0.01065 -0.13695 -0.006875l-2.0339575 -0.818c-0.124935 -0.050225 -0.3607625 0.07785 -0.4619225 0.2127l-0.3794875 0.4722c-0.08426975 0.160175 -0.020195 0.439525 0.092165 0.4913l2.8926025 1.397325 -2.74022 1.281575c-0.2126025 0.0997 -0.3372625 0.3626 -0.1903875 0.6077l0.284845 0.329625c0.1837775 0.20095 0.383345 0.34755 0.62578 0.252175l2.0358825 -0.767425c0.044425 -0.0167 0.093075 -0.018825 0.138875 -0.005875l0.788075 0.22325c0.0584 0.016525 0.121275 0.001025 0.165325 -0.04075l0.842975 -0.8002c0.188925 1.083125 0.629175 2.07985 1.261375 2.925675l-1.232375 0.009625c-0.05305 0.00045 -0.1018 0.029475 -0.1274 0.076l-0.436225 0.7912c-0.02275 0.041225 -0.058575 0.07355 -0.1018 0.092075l-2.0166 0.859775c-0.1238275 0.052775 -0.2001125 0.3101 -0.176245 0.476975l0.0655425 0.6022c0.0537025 0.172925 0.2965025 0.325125 0.4126275 0.282275l3.033425 -1.057325 -1.031425 2.843875c-0.079775 0.220775 0.0179 0.494775 0.295125 0.564275l0.434475 0.031675c0.272 0.0121 0.516825 -0.02525 0.620725 -0.2642l0.89695 -1.982175c0.01965 -0.043225 0.0526 -0.079125 0.0941 -0.10235l0.7151 -0.3994c0.05295 -0.02965 0.086475 -0.085025 0.088025 -0.1457l0.0304 -1.162325c0.8627 0.606225 1.870175 1.0195 2.961275 1.17655l-0.865275 0.878875c-0.0372 0.0379 -0.05115 0.0929 -0.036375 0.14385l0.251075 0.867925c0.013025 0.045175 0.01055 0.09345 -0.006975 0.137075l-0.818 2.033925c-0.050225 0.12485 0.07785 0.360775 0.212775 0.461925l0.472125 0.3794c0.160175 0.084275 0.439525 0.0203 0.491375 -0.092075l1.39725 -2.8927 1.281675 2.740225c0.099675 0.2126 0.3625 0.337275 0.6077 0.1904l0.32955 -0.28485c0.200925 -0.183775 0.347625 -0.38335 0.25215 -0.625775l-0.767325 -2.0358c-0.0168 -0.0445 -0.018825 -0.093175 -0.005875 -0.138875l0.22315 -0.788175c0.016525 -0.058375 0.001025 -0.121175 -0.04075 -0.165225l-0.8001 -0.843075c1.083025 -0.188925 2.07985 -0.629075 2.925575 -1.261375l0.009725 1.232475c0.000375 0.05305 0.029475 0.1018 0.075925 0.1274l0.791275 0.436225c0.041125 0.022675 0.073525 0.058475 0.091975 0.1017l0.859775 2.0167c0.052775 0.123825 0.3101 0.200025 0.477075 0.17615l0.6021 -0.06555c0.17295 -0.0537 0.32515 -0.2965 0.28235 -0.412525l-1.0574 -3.033525 2.843875 1.031425c0.22085 0.079875 0.494875 -0.0179 0.564375 -0.295125l0.03165 -0.434475c0.012125 -0.271975 -0.025325 -0.5168 -0.264175 -0.620725l-1.982175 -0.89695c-0.043325 -0.01965 -0.079225 -0.0526 -0.10245 -0.0941l-0.3994 -0.715075c-0.02965 -0.052975 -0.085 -0.086475 -0.1457 -0.08805l-1.162325 -0.0303c0.606225 -0.8627 1.0195 -1.87025 1.176575 -2.961275l0.87895 0.8652c0.037825 0.037275 0.0928 0.051125 0.14375 0.03645l0.868025 -0.251075c0.045075 -0.013125 0.093375 -0.01065 0.136975 0.006875l2.033925 0.818025c0.12495 0.0502 0.360775 -0.07785 0.461925 -0.2127l0.3794 -0.4722c0.084375 -0.1602 0.0203 -0.439525 -0.092075 -0.4913ZM16.932675 11.23275h-1.462775c-0.1064 -0.4835 -0.3111 -0.9298 -0.592375 -1.317375l1.025275 -1.025275c0.529775 0.663875 0.894475 1.465175 1.029875 2.34265Zm-3.02195 -2.22855c-0.402175 -0.257125 -0.859125 -0.43585 -1.35005 -0.5137v-1.44975c0.885375 0.09895 1.700425 0.429325 2.383875 0.929625l-1.033825 1.033825ZM13.732625 12c0 0.956875 -0.775675 1.73265 -1.73265 1.73265 -0.9569 0 -1.732675 -0.775775 -1.732675 -1.73265 0 -0.9569 0.775775 -1.732675 1.732675 -1.732675 0.956975 0 1.73265 0.775775 1.73265 1.732675Zm-2.4999 -4.932725v1.4628c-0.4835 0.106475 -0.9298 0.311175 -1.317275 0.59235l-1.025375 -1.025275c0.663975 -0.52975 1.465175 -0.894475 2.34265 -1.029875Zm-2.22855 3.02195c-0.257025 0.402275 -0.43585 0.859225 -0.5136 1.350075h-1.44985c0.09905 -0.885375 0.429425 -1.70045 0.929625 -2.383875l1.033825 1.0338Zm-1.936825 2.678h1.462775c0.1064 0.4835 0.3111 0.929825 0.592375 1.317375l-1.025375 1.025275c-0.529675 -0.663875 -0.894375 -1.46515 -1.029775 -2.34265Zm3.021875 2.22855c0.40225 0.257125 0.8592 0.43585 1.35005 0.5137v1.44975c-0.8853 -0.09895 -1.70045 -0.429325 -2.383775 -0.929625l1.033725 -1.033825Zm2.678075 1.936925v-1.462775c0.4834 -0.1065 0.9298 -0.3112 1.317275 -0.592375l1.0253 1.025275c-0.663875 0.529775 -1.465175 0.894475 -2.342575 1.029875Zm2.22855 -3.02195c0.257025 -0.40225 0.435775 -0.859225 0.5136 -1.350075h1.44985c-0.09905 0.8854 -0.429425 1.70045 -0.929625 2.383875l-1.033825 -1.0338Z" stroke-width="0.25"></path>
</svg>