<svg xmlns="http://www.w3.org/2000/svg" fill="none" viewBox="0 0 96 96" id="Linux-Tux--Streamline-Svg-Logos" height="24" width="24">
  <desc>
    Linux Tux Streamline Icon: https://streamlinehq.com
  </desc>
  <path fill="#000000" d="M26.3911 73.0522c-3.8224-5.487-4.5622-23.3658 4.3464-34.3705 4.408-5.2712 5.5486-8.9394 5.8877-13.9024.2466-5.641-3.9765-22.44099 11.9295-23.70484C64.6764-.220215 63.7825 15.6858 63.69 24.1012c-.0616 7.0899 5.2095 11.128 8.847 16.6766 6.6891 10.1725 6.1342 27.6814-1.2639 37.1757-9.371 11.8678-17.3856 6.7199-22.7184 7.1515-9.9875.5857-10.3266 5.8877-22.1636-12.0528Z"></path>
  <path fill="url(#a)" d="M65.2931 41.8257c2.7743 2.5586 9.9567 13.9949-1.418 21.1464-4.0073 2.4969 3.5758 11.9911 7.2132 7.3981 6.4426-8.2612 2.3428-21.4546-1.5412-26.1709-2.5894-3.3291-6.5967-4.6238-4.254-2.3736Z"></path>
  <path fill="#000000" stroke="#000000" stroke-width=".977" d="M64.5222 40.2847c4.5622 3.6991 12.8543 16.6458.7399 25.092-3.9765 2.6202 3.5141 10.9123 7.7372 6.6892 14.6421-14.7346-.3699-31.6579-5.5486-37.4839-4.6239-5.0862-8.7237 1.1714-2.9285 5.7027Z"></path>
  <path fill="url(#b)" d="M57.9564 9.11996c-.1541 4.22314-4.8088 7.89134-10.3882 8.23044-5.5794.3391-9.9567-2.8668-9.8025-7.0899.1541-4.2231 4.8088-7.89134 10.3882-8.23043 5.5794-.30825 9.9567 2.86678 9.8025 7.08989Z"></path>
  <path fill="url(#c)" d="M44.6088 19.1691c.1541 2.7434-1.1405 5.0553-2.9284 5.1478-1.7879.0925-3.36-2.0345-3.5141-4.7779-.1542-2.7435 1.1405-5.0554 2.9284-5.1479 1.7879-.0925 3.36 2.0345 3.5141 4.778Z"></path>
  <path fill="url(#d)" d="M47.8459 19.3849c.0616 3.175 2.127 5.7027 4.593 5.6411 2.4661-.0617 4.4081-2.6819 4.3464-5.8877-.0616-3.1751-2.1269-5.7028-4.593-5.6411-2.466.0616-4.4389 2.7126-4.3464 5.8877Z"></path>
  <path fill="#000000" d="M49.8802 20.0938c-.0308 1.7571.8323 3.175 1.9728 3.175 1.1098 0 2.0653-1.4179 2.0962-3.1442.0308-1.757-.8323-3.175-1.9729-3.175-1.1405 0-2.0653 1.418-2.0961 3.1442Z"></path>
  <path fill="#000000" d="M42.7599 20.1247c.1541 1.4488-.4008 2.6818-1.2022 2.8051-.8015.0925-1.5722-.9864-1.7263-2.4352-.1541-1.4488.4008-2.6818 1.2022-2.8051.8015-.0925 1.5721.9864 1.7263 2.4352Z"></path>
  <path fill="url(#e)" d="M50.3428 19.1074c-.0924.9864.3699 1.7879 1.0173 1.8495.6473.0617 1.2638-.709 1.3563-1.6646.0925-.9864-.3699-1.7879-1.0172-1.8495-.6474-.0617-1.2639.709-1.3564 1.6646Z"></path>
  <path fill="url(#f)" d="M42.0814 19.3541c.0925.8015-.2466 1.5105-.7398 1.5721-.4932.0617-.9556-.5548-1.0481-1.3871-.0924-.8015.2466-1.5105.7399-1.5721.4932-.0617.9556.5856 1.048 1.3871Z"></path>
  <path fill="url(#g)" d="M32.371 49.6248c2.1886-4.9629 6.8433-13.6865 6.9358-20.4373 0-5.3637 16.0601-6.6584 17.3548-1.2947 1.2947 5.3636 4.5622 13.3783 6.6583 17.2623 2.0961 3.8532 8.1688 16.1526 1.6954 26.8799-5.826 9.4943-23.4891 17.0157-32.9217-1.2947-3.2059-6.35-2.6202-14.2105.2774-21.1155Z"></path>
  <path fill="url(#h)" d="M30.3984 45.9258C28.518 49.4707 24.634 58.78 34.1283 63.8663c10.2032 5.4253 10.1724 16.5533-2.0962 11.2513-11.2205-4.778-6.2576-24.1364-3.1134-28.7603 2.0345-3.2367 5.1171-7.2132 1.4797-.4315Z"></path>
  <path fill="#000000" stroke="#000000" stroke-width="1.25" d="M32.0012 41.9182c-2.99 4.8705-10.1416 16.3376-.5548 22.3178 12.8851 7.9221 9.2476 15.8135-2.5277 8.6928-16.5842-9.9259-2.0037-29.9625 4.6238-37.6072 7.5831-8.5695 1.4488 1.5721-1.5413 6.5966Z"></path>
  <path fill="url(#i)" d="M61.0394 51.5052c0 5.4253-5.2095 12.4536-14.1489 12.3919-9.2169.0617-13.1317-6.9666-13.1317-12.3919s6.1035-9.8333 13.6249-9.8333c7.5523.0308 13.6557 4.408 13.6557 9.8333Z"></path>
  <path fill="url(#j)" d="M56.169 34.4586c-.0925 5.6103-3.7607 6.9358-8.3845 6.9358-4.6239 0-7.9839-.8323-8.3846-6.9358 0-3.8223 3.7607-6.0418 8.3846-6.0418 4.6238-.0308 8.3845 2.1886 8.3845 6.0418Z"></path>
  <path fill="url(#k)" d="M28.21 43.0897c3.0209-4.593 9.4018-11.6521 1.2022.9864-6.6583 10.419-2.4661 17.1082-.3083 18.9577 6.2268 5.5486 5.9802 9.2785 1.0789 6.3501-10.5115-6.2576-8.3229-16.8-1.9728-26.2942Z"></path>
  <path fill="url(#l)" d="M71.9518 44.97c-2.6202-5.3944-10.9431-19.081.4007-3.175 10.3266 14.3956 3.0826 24.4139 1.7879 25.4003-1.2947.9864-5.6411 2.9901-4.3772-.4932 1.2946-3.4833 7.7064-10.08 2.1886-21.7321Z"></path>
  <path fill="url(#m)" stroke="#e68c3f" stroke-width="6.25" d="M25.9286 87.5093c-6.905-3.6683-16.92329.709-13.2859-9.2169.7398-2.2503-1.0789-5.6411.0925-7.8297 1.3872-2.6818 4.3772-2.0961 6.1651-3.884 1.7571-1.8495 2.8668-5.0554 6.1651-4.5622 3.2675.4932 5.4562 4.5005 7.7373 9.4326 1.6954 3.5142 7.6755 8.4771 7.2748 12.4227-.4932 6.0419-7.3673 7.1824-14.1489 3.6375Z"></path>
  <path fill="url(#n)" d="M76.2056 64.2052c-1.0481 1.9728-5.4253 5.1479-8.3538 4.3156-2.9592-.8015-4.3155-5.302-3.7299-8.7237.5549-3.8223 3.7299-4.0381 7.7373-2.1269 4.3155 2.1269 5.6102 3.9148 4.3464 6.535Z"></path>
  <path fill="url(#o)" stroke="#e68c3f" stroke-width="6.251" d="M73.8006 85.814c5.0554-6.1343 16.3067-4.8704 8.7236-13.2858-1.6029-1.8187-1.1097-5.7027-3.0825-7.3673-2.3119-2.0345-4.8705-.3699-7.2132-1.418-2.3427-1.1405-4.8088-3.3292-7.6756-1.7879-2.8668 1.5721-3.175 5.6411-3.4524 11.0048-.2466 3.8532-3.7608 10.2957-1.8804 13.8406 2.7127 5.487 9.7717 4.7472 14.5805-.9864Z"></path>
  <path fill="url(#p)" d="M71.6122 77.6143c7.8297-11.5596 2.0036-11.4671.0308-12.361-1.9729-.9248-4.0382-2.7435-6.3501-1.4797-2.3119 1.2947-2.4352 4.6239-2.4969 9.0011-.0924 3.1442-2.7126 8.4154-1.1405 11.3438 1.9112 3.4217 6.535-1.5412 9.9567-6.5042Z"></path>
  <path fill="url(#q)" d="M24.3262 79.2791c-11.7137-7.5831-6.2268-10.1725-4.4697-11.3747 2.1269-1.5413 2.1578-4.5005 4.7779-4.2231 2.6202.2774 4.1615 3.5141 5.9185 7.5214 1.2947 2.8668 5.7953 6.6892 5.4562 9.9875-.4316 3.8841-6.6275 1.3255-11.6829-1.9111Z"></path>
  <path fill="#000000" d="M75.5275 64.1129c-.9248 1.603-4.6855 4.1307-7.1824 3.4525-2.5585-.6473-3.7299-4.2539-3.2059-6.9666.4624-3.0825 3.2059-3.2367 6.6584-1.6954 3.6682 1.6646 4.8088 3.0826 3.7299 5.2095Z"></path>
  <path fill="url(#r)" d="M72.9994 63.2185c-.5857 1.1098-3.0517 2.8668-4.778 2.4044-1.7262-.4623-2.5893-2.9592-2.3119-4.8396.2466-2.1269 2.0962-2.2502 4.4389-1.2022 2.5277 1.1714 3.3292 2.1578 2.651 3.6374Z"></path>
  <path fill="url(#s)" stroke="#e68c3f" stroke-width="3.75" d="M41.1255 22.9914c1.2331-1.1405 4.2231-4.6238 9.8951-.9864 1.048.6782 1.9111.7398 3.9148 1.6029 4.0382 1.6646 2.127 5.6719-2.1886 7.0283-1.8495.5856-3.5141 2.8359-6.8433 2.6201-2.8668-.1541-3.6066-2.0345-5.3636-3.0517-3.1134-1.7571-3.5758-4.1306-1.8804-5.3945 1.6954-1.2638 2.3427-1.7262 2.466-1.8187Z"></path>
  <path stroke="#e68c3f" stroke-width="2.5" d="M54.9974 26.228c-1.6954.0925-5.3636 3.7607-9.2168 3.7607-3.8532 0-6.1651-3.5757-6.7508-3.5757"></path>
  <path fill="url(#t)" d="M43.0372 22.6832c.6165-.5549 2.5585-2.0653 5.117-.524.5549.3082 1.1097.6473 1.9112 1.1097 1.6337.9556.8323 2.3427-1.1406 3.2058-.8939.37-2.3735 1.1714-3.4833 1.1098-1.233-.1233-2.0653-.9248-2.8667-1.4488-1.5105-.9865-1.418-1.8187-.709-2.4661.524-.4932 1.1097-.9556 1.1714-.9864Z"></path>
  <defs>
    <linearGradient id="a" x1="631.665" x2="834.038" y1="3603.51" y2="1334.56" gradientUnits="userSpaceOnUse">
      <stop stop-color="#ffeed7"></stop>
      <stop offset="1" stop-color="#bdbfc2"></stop>
    </linearGradient>
    <linearGradient id="b" x1="1136.7" x2="1040.14" y1="38.95" y2="1398.2" gradientUnits="userSpaceOnUse">
      <stop stop-color="#fff" stop-opacity=".8"></stop>
      <stop offset="1" stop-color="#fff" stop-opacity="0"></stop>
    </linearGradient>
    <linearGradient id="c" x1="373.553" x2="314.078" y1="890.834" y2="113.815" gradientUnits="userSpaceOnUse">
      <stop stop-color="#ffeed7"></stop>
      <stop offset="1" stop-color="#bdbfc2"></stop>
    </linearGradient>
    <linearGradient id="d" x1="494.371" x2="494.35" y1="999.279" y2="172.75" gradientUnits="userSpaceOnUse">
      <stop stop-color="#ffeed7"></stop>
      <stop offset="1" stop-color="#bdbfc2"></stop>
    </linearGradient>
    <linearGradient id="e" x1="179.54" x2="138.803" y1="28.361" y2="345.259" gradientUnits="userSpaceOnUse">
      <stop stop-color="#fff" stop-opacity=".65"></stop>
      <stop offset="1" stop-color="#fff" stop-opacity="0"></stop>
    </linearGradient>
    <linearGradient id="f" x1="123.181" x2="167.037" y1="34.209" y2="290.871" gradientUnits="userSpaceOnUse">
      <stop stop-color="#fff" stop-opacity=".65"></stop>
      <stop offset="1" stop-color="#fff" stop-opacity="0"></stop>
    </linearGradient>
    <linearGradient id="g" x1="1928.68" x2="1928.68" y1="5188.94" y2="2360.05" gradientUnits="userSpaceOnUse">
      <stop stop-color="#ffeed7"></stop>
      <stop offset="1" stop-color="#bdbfc2"></stop>
    </linearGradient>
    <linearGradient id="h" x1="905.708" x2="183.654" y1="3471.12" y2="1009.62" gradientUnits="userSpaceOnUse">
      <stop stop-color="#ffeed7"></stop>
      <stop offset="1" stop-color="#bdbfc2"></stop>
    </linearGradient>
    <linearGradient id="i" x1="1393.46" x2="1400.7" y1="335.694" y2="2145.85" gradientUnits="userSpaceOnUse">
      <stop stop-color="#fff" stop-opacity=".8"></stop>
      <stop offset="1" stop-color="#fff" stop-opacity="0"></stop>
    </linearGradient>
    <linearGradient id="j" x1="876.635" x2="884.669" y1="512.843" y2="1232.6" gradientUnits="userSpaceOnUse">
      <stop stop-color="#fff" stop-opacity=".65"></stop>
      <stop offset="1" stop-color="#fff" stop-opacity="0"></stop>
    </linearGradient>
    <linearGradient id="k" x1="568.97" x2="568.97" y1="113.893" y2="2755.24" gradientUnits="userSpaceOnUse">
      <stop stop-color="#fff" stop-opacity=".65"></stop>
      <stop offset="1" stop-color="#fff" stop-opacity="0"></stop>
    </linearGradient>
    <linearGradient id="l" x1="628.074" x2="627.091" y1="112.328" y2="2498.91" gradientUnits="userSpaceOnUse">
      <stop stop-color="#fff" stop-opacity=".65"></stop>
      <stop offset="1" stop-color="#fff" stop-opacity="0"></stop>
    </linearGradient>
    <linearGradient id="m" x1="1521.04" x2="1129.32" y1="1409.44" y2="2769.21" gradientUnits="userSpaceOnUse">
      <stop stop-color="#ffa63f"></stop>
      <stop offset="1" stop-color="#ff0"></stop>
    </linearGradient>
    <linearGradient id="n" x1="728.016" x2="672.059" y1="1796.16" y2="-729.72" gradientUnits="userSpaceOnUse">
      <stop stop-color="#ffeed7"></stop>
      <stop offset="1" stop-color="#bdbfc2"></stop>
    </linearGradient>
    <linearGradient id="o" x1="866.203" x2="1932.77" y1="1052.08" y2="2563.1" gradientUnits="userSpaceOnUse">
      <stop stop-color="#ffa63f"></stop>
      <stop offset="1" stop-color="#ff0"></stop>
    </linearGradient>
    <linearGradient id="p" x1="920.703" x2="556.199" y1="-313.843" y2="1470.55" gradientUnits="userSpaceOnUse">
      <stop stop-color="#fff" stop-opacity=".65"></stop>
      <stop offset="1" stop-color="#fff" stop-opacity="0"></stop>
    </linearGradient>
    <linearGradient id="q" x1="924.382" x2="996.429" y1="94.155" y2="2096.17" gradientUnits="userSpaceOnUse">
      <stop stop-color="#fff" stop-opacity=".65"></stop>
      <stop offset="1" stop-color="#fff" stop-opacity="0"></stop>
    </linearGradient>
    <linearGradient id="r" x1="386.873" x2="471.278" y1="89.585" y2="688.651" gradientUnits="userSpaceOnUse">
      <stop stop-color="#fff" stop-opacity=".65"></stop>
      <stop offset="1" stop-color="#fff" stop-opacity="0"></stop>
    </linearGradient>
    <linearGradient id="s" x1="1005.88" x2="1012.91" y1="247.203" y2="1300.62" gradientUnits="userSpaceOnUse">
      <stop stop-color="#ffa63f"></stop>
      <stop offset="1" stop-color="#ff0"></stop>
    </linearGradient>
    <linearGradient id="t" x1="521.554" x2="519.649" y1="39.124" y2="596.134" gradientUnits="userSpaceOnUse">
      <stop stop-color="#fff" stop-opacity=".65"></stop>
      <stop offset="1" stop-color="#fff" stop-opacity="0"></stop>
    </linearGradient>
  </defs>
</svg>