<svg xmlns="http://www.w3.org/2000/svg" fill="none" viewBox="0 0 24 24" id="Numpy--Streamline-Svg-Logos" height="24" width="24">
  <desc>
    Numpy Streamline Icon: https://streamlinehq.com
  </desc>
  <path fill="#4dabcf" d="m17.458075 16.250325 0.0051 5.197925L12.850625 23.75V18.554325l4.60745 -2.304Zm5.53575 -2.7781v5.2161L19.05975 20.651675l-0.002825 -5.19225 3.9369 -1.9872ZM17.45125 9.292875l0.005125 5.143425 -4.60575 2.288675V11.57985l4.600625 -2.286975Zm5.542575 -2.7554v5.111075L19.055775 13.6505l-0.0034 -5.15365 3.94145 -1.959375Zm-10.8444 -0.604675 4.1169 2.07805L11.995 10.155875 7.955875 8.12725l4.19355 -2.19445Zm-5.726525 -2.8905 3.9267 1.982075 -4.2032 2.193875 -4.032875 -2.02525 4.309375 -2.1507Zm11.2248 0.030075 4.229325 2.120625 -3.782475 1.899775 -4.125425 -2.0809 3.678575 -1.9395ZM12.019975 0.25l3.807475 1.9088425L12.176675 4.108 8.2534 2.12932 12.019975 0.25Z" stroke-width="0.25"></path>
  <path fill="#4d77cf" d="m11.2221 11.5799 -3.106825 -1.561925v6.75135S4.31575 8.68485 3.96375 7.958675c-0.045425 -0.093675 -0.232225 -0.19645 -0.279925 -0.221425 -0.681325 -0.3577 -2.6776 -1.3689 -2.6776 -1.3689v11.9277l2.761625 1.4762V13.537575s3.759225 7.22375 3.79725 7.30265c0.03805 0.078925 0.415625 0.8403 0.818725 1.107725 0.537125 0.355425 2.83885 1.73965 2.83885 1.73965l-0.000575 -12.1077Z" stroke-width="0.25"></path>
</svg>