<svg xmlns="http://www.w3.org/2000/svg" fill="none" viewBox="0 0 24 24" id="Pytorch-Icon--Streamline-Svg-Logos" height="24" width="24">
  <desc>
    Pytorch Icon Streamline Icon: https://streamlinehq.com
  </desc>
  <path fill="#ee4c2c" d="M11.986725 0.25v3.42155l-5.2572 5.257c-2.7514 2.790575 -2.751125 7.27955 0.00085 10.120725l0.084225 0.0856c2.811525 2.86455 7.42665 2.86455 10.2912 0 2.835925 -2.7834 2.864275 -7.334525 0.085075 -10.204725l-0.085075 -0.086475 1.750575 -1.75055c3.8194 3.8194 3.8194 9.946375 0 13.792325 -3.73985 3.8194 -9.89335 3.8194 -13.712775 0 -3.7812075 -3.781225 -3.8190175 -9.850075 -0.113425 -13.67705l0.113425 -0.115275L11.986725 0.25Zm3.448075 3.87245c0.70315 0 1.27315 0.570025 1.27315 1.27315s-0.57 1.273125 -1.27315 1.273125c-0.703125 0 -1.273125 -0.57 -1.273125 -1.273125 0 -0.703125 0.57 -1.27315 1.273125 -1.27315Z" stroke-width="0.25"></path>
</svg>