<svg xmlns="http://www.w3.org/2000/svg" fill="none" viewBox="0 0 24 24" id="Tableau-Icon--Streamline-Svg-Logos" height="24" width="24">
  <desc>
    Tableau Icon Streamline Icon: https://streamlinehq.com
  </desc>
  <path fill="#7099a6" d="M11.626475 1.553125v1.068575h-1.911275v0.695h1.911275v2.128475h0.74715v-2.128475h1.95905v-0.695h-1.95905V0.4888925h-0.74715V1.553125Z" stroke-width="0.25"></path>
  <path fill="#eb912c" d="M5.380025 4.263625v1.55075H2.48706v0.973H5.380025v3.149275h1.072925V6.787375h2.936425v-0.973H6.45295V2.7129h-1.072925v1.550725Z" stroke-width="0.25"></path>
  <path fill="#59879b" d="M17.50345 4.263625v1.55075H14.610475v1.0208h2.892975v3.101475h1.11635V6.835175h2.892975v-1.0208H18.6198V2.7129h-1.11635v1.550725Z" stroke-width="0.25"></path>
  <path fill="#e8762c" d="M11.348275 9.54575v1.737525h-3.21875v1.29445h3.21875v3.47505h1.30315V12.577725h3.21875v-1.29445h-3.21875V7.808225h-1.30315v1.737525Z" stroke-width="0.25"></path>
  <path fill="#5b6591" d="M20.813675 10.4231v1.0903h-1.95905v0.8818h1.95905v2.17625h0.97735v-2.17625h1.95905v-0.8818h-1.95905v-2.17625h-0.97735v1.08595Z" stroke-width="0.25"></path>
  <path fill="#7099a6" d="M2.161275 10.518825v1.042525H0.25v0.73845h1.911275v2.085025h0.747125v-2.085025l1.959075 -0.0695v-0.66895h-1.959075v-2.085025H2.161275v1.0425Z" stroke-width="0.25"></path>
  <path fill="#c72035" d="M5.380025 15.4272v1.55075H2.48706v1.020775H5.380025v3.1015h1.116375v-3.1015h2.892975v-1.020775H6.4964V13.876475h-1.116375v1.550725Z" stroke-width="0.25"></path>
  <path fill="#1f447e" d="M17.50345 15.4272v1.55075H14.610475v0.973h2.892975v3.149275h1.11635V17.95095h2.892975v-0.973H18.6198V13.876475h-1.11635v1.550725Z" stroke-width="0.25"></path>
  <path fill="#5b6591" d="M11.5351 19.3669v1.08595h-1.95905v0.8818h1.95905v2.17625h0.977375v-2.17625h1.95905v-0.8818h-1.95905v-2.17625h-0.977375v1.0903Z" stroke-width="0.25"></path>
</svg>