<svg xmlns="http://www.w3.org/2000/svg" fill="none" viewBox="0 0 48 48" id="Tensorflow--Streamline-Svg-Logos" height="48" width="48">
  <desc>
    Tensorflow Streamline Icon: https://streamlinehq.com
  </desc>
  <path fill="#e55b2d" d="M27.13085 7.73v7.2311L39.6545 22.1922V14.9611L27.13085 7.73ZM2.082765 14.9611v7.2311L8.3446 25.807V18.57665L2.082765 14.9611Zm18.785485 3.61555 -6.2618 3.61555v21.69185l6.2618 3.61555V33.03815l6.2626 3.61555V29.4226L20.86825 25.807V18.57665Z" stroke-width="0.5"></path>
  <path fill="#ed8e24" d="M27.13075 7.73 8.3445 18.57665V25.807l12.52365 -7.23035V25.807l6.2626 -3.6148V7.73Zm18.78625 3.61555 -6.2626 3.61555v7.2311l6.2626 -3.61555V11.34555ZM33.39255 25.807l-6.2618 3.6156v7.2311l6.2618 -3.61555V25.807ZM27.13075 36.6537l-6.2626 -3.61555v14.46145l6.2626 -3.61555V36.6537Z" stroke-width="0.5"></path>
  <path fill="#f8bf3c" d="M27.13085 0.5 2.082765 14.9615l6.261835 3.61555 18.78625 -10.8467L39.6545 14.9615l6.2626 -3.61555L27.13085 0.5Zm0 21.6926 -6.2626 3.6148 6.2626 3.61555 6.26185 -3.61555 -6.26185 -3.6148Z" stroke-width="0.5"></path>
</svg>